/* XPM */
static char *bitcoin__[] = {
/* columns rows colors chars-per-pixel */
<<<<<<< HEAD
"16 16 159 2",
"   c #CA7C1E",
".  c #CB7D1E",
"X  c #D1811E",
"o  c #D0801F",
"O  c #D1801F",
"+  c #D3821F",
"@  c #D7831F",
"#  c #EE8D18",
"$  c #F4931F",
"%  c #D78625",
"&  c #D88520",
"*  c #D98521",
"=  c #D98620",
"-  c #D78B2D",
";  c #DF8D2A",
":  c #DF8F2F",
">  c #DF943B",
",  c #D8913C",
"<  c #D8923E",
"1  c #DF953E",
"2  c #E28B23",
"3  c #E38B23",
"4  c #EA9023",
"5  c #EB9023",
"6  c #ED9122",
"7  c #ED9123",
"8  c #EE9123",
"9  c #EE9223",
"0  c #F39421",
"q  c #F19423",
"w  c #F39523",
"e  c #F79521",
"r  c #F59422",
"t  c #F49623",
"y  c #F69622",
"u  c #F79623",
"i  c #F09324",
"p  c #F19424",
"a  c #F19525",
"s  c #F49624",
"d  c #F59625",
"f  c #F49725",
"g  c #F79624",
"h  c #F79724",
"j  c #F69725",
"k  c #F79725",
"l  c #F69726",
"z  c #F79726",
"x  c #F89621",
"c  c #F89722",
"v  c #F89723",
"b  c #F89724",
"n  c #F89824",
"m  c #F89825",
"M  c #F99825",
"N  c #F89925",
"B  c #F89926",
"V  c #F89927",
"C  c #F99927",
"Z  c #F0972E",
"A  c #F7992A",
"S  c #F79A2B",
"D  c #F79B2C",
"F  c #F69A2D",
"G  c #F79D2F",
"H  c #F89929",
"J  c #F89A28",
"K  c #F89A29",
"L  c #F99A29",
"P  c #F99B29",
"I  c #F89A2A",
"U  c #F89A2B",
"Y  c #F99B2B",
"T  c #F89B2C",
"R  c #F89C2C",
"E  c #F99C2D",
"W  c #F99C2E",
"Q  c #F89D2E",
"!  c #F99D2F",
"~  c #E29335",
"^  c #E49639",
"/  c #E2983F",
"(  c #F79F35",
")  c #F99E31",
"_  c #F89E32",
"`  c #F99E32",
"'  c #F9A033",
"]  c #F9A035",
"[  c #F9A135",
"{  c #F9A036",
"}  c #F9A136",
"|  c #F9A137",
" . c #F3A03F",
".. c #F7A43F",
"X. c #F8A139",
"o. c #F9A23A",
"O. c #FAA33B",
"+. c #FAA43E",
"@. c #FAA43F",
"#. c #EF9F41",
"$. c #EEA244",
"%. c #ECA34B",
"&. c #F8A440",
"*. c #F9A541",
"=. c #F9A644",
"-. c #F9A947",
";. c #F0A349",
":. c #F5A648",
">. c #F1A74E",
",. c #F7AA4F",
"<. c #E4A458",
"1. c #E4A55B",
"2. c #E8A95E",
"3. c #F2A950",
"4. c #F4AA52",
"5. c #FBAF55",
"6. c #E4A860",
"7. c #EAAC63",
"8. c #EBAF68",
"9. c #F2AF61",
"0. c #EBB16C",
"q. c #F6B568",
"w. c #E3AF71",
"e. c #EBBE89",
"r. c #E0BC93",
"t. c #E3C199",
"y. c #E6C59D",
"u. c #EAC89E",
"i. c #E7C8A2",
"p. c #EACBA6",
"a. c #EBCFAF",
"s. c #F1CCA0",
"d. c #E7CEB1",
"f. c #ECD1B0",
"g. c #E5D2BB",
"h. c #E8D2B8",
"j. c #DFDFDF",
"k. c #E7D5C1",
"l. c #E7D7C4",
"z. c #E5D7C7",
"x. c #E7DACB",
"c. c #EADAC8",
"v. c #E9DCCC",
"b. c #EDDFCE",
"n. c #E5DDD3",
"m. c #E4DFD9",
"M. c #ECE0D1",
"N. c #E4E1DD",
"B. c #EDE3D8",
"V. c #EAE4DD",
"C. c #ECE5DC",
"Z. c #E2E2E2",
"A. c #E5E2E0",
"S. c #E4E4E4",
"D. c #E7E7E7",
"F. c #EAEAE9",
"G. c gray92",
"H. c #EEEEEE",
"J. c None",
/* pixels */
"J.J.J.J.J.J.J.1 > J.J.J.J.J.J.J.",
"J.J.J.J.J./ ..| ' ( ~ J.J.J.J.J.",
"J.J.J.< *.{ V $ r U W _ - J.J.J.",
"J.J., o.J 0 # <.w.$.F N H % J.J.",
"J.J.o.T e 1.r.k.x.t.S z B u J.J.",
"J.^ [ Y ! #.z.H.M.n.0.d n m 2 J.",
"J.X.) | =. .h.B.5.f.j.;.v B d J.",
": Q M ` &.>.A.V.p.c.l.4.E n d = ",
"; I b A Z 2.D.s.u.F.a.-.} C w & ",
"J.l g y 6.m.G.q.3.b.Z.,.] D 8 J.",
"J.3 k c %.d.C.v.N.S.y.@.L a * J.",
"J.J.j z x 8.i.g.e.9.+.W t 6 J.J.",
"J.J.+ s h G :.7.O.R B s 7 . J.J.",
"J.J.J.O i f P L K d p 5   J.J.J.",
"J.J.J.J.J.@ 9 q i 4 + J.J.J.J.J.",
"J.J.J.J.J.J.J.X o J.J.J.J.J.J.J."
=======
"16 16 150 2",
"   c #252211",
".  c #4B442B",
"X  c #896C37",
"o  c #957533",
"O  c #97832D",
"+  c #97802F",
"@  c #96832E",
"#  c #9D872F",
"$  c #9E882F",
"%  c #9F8A3A",
"&  c #A48D2F",
"*  c #A58D2F",
"=  c #A48E2F",
"-  c #A88636",
";  c #A18830",
":  c #A28B30",
">  c #A28C30",
",  c #A38C30",
"<  c #B79333",
"1  c #B19732",
"2  c #B19336",
"3  c #B19832",
"4  c #B59A33",
"5  c #B69C32",
"6  c #B99D33",
"7  c #BA9E33",
"8  c #BA9F33",
"9  c #BA9B37",
"0  c #BA9E34",
"q  c #BA9F34",
"w  c #B69D3A",
"e  c #BB9D3A",
"r  c #BBA035",
"t  c #BDA037",
"y  c #BCA238",
"u  c #BDA33B",
"i  c #BCA23E",
"p  c #B48F41",
"a  c #A79346",
"s  c #AD9345",
"d  c #AC994C",
"f  c #BA9940",
"g  c #B39B49",
"h  c #A3925B",
"j  c #B19A53",
"k  c #BA9D56",
"l  c #B4A154",
"z  c #BEA05F",
"x  c #C4A343",
"c  c #C1A744",
"v  c #C9AD59",
"b  c #CEAD59",
"n  c #C8B254",
"m  c #C8B255",
"M  c #CCB15A",
"N  c #C6AC62",
"B  c #CFB264",
"V  c #CBB769",
"C  c #D3B868",
"Z  c #D4BA6F",
"A  c #D4BC6C",
"S  c #D8BC6F",
"D  c #D6BF70",
"F  c #D7BD76",
"G  c #D1BF7A",
"H  c #D7C377",
"J  c #D8C173",
"K  c #D9C273",
"L  c #D9C374",
"P  c #DAC376",
"I  c #DEC176",
"U  c #DFC775",
"Y  c #DBC578",
"T  c #DDC97C",
"R  c #DECA7D",
"E  c #DFCB7F",
"W  c #E2C879",
"Q  c #E4CA79",
"!  c #E5CC7C",
"~  c #C7BE8C",
"^  c #C0B89D",
"/  c #CFC28A",
"(  c #DFCC87",
")  c #DDC68E",
"_  c #DFCD88",
"`  c #DBC791",
"'  c #DDCB97",
"]  c #DCCD9A",
"[  c #DECE9F",
"{  c #E0CD81",
"}  c #E0CD87",
"|  c #E8D18D",
" . c #E1CF99",
".. c #E3D397",
"X. c #E7D497",
"o. c #EFDC96",
"O. c #D5CBB0",
"+. c #DDD4BB",
"@. c #E4D4A0",
"#. c #E5D6A5",
"$. c #E6D7A6",
"%. c #EDDCA9",
"&. c #EADEB2",
"*. c #EEE4AB",
"=. c #ECE1BA",
"-. c #EEE2BC",
";. c #EDE3BE",
":. c #F1E2B6",
">. c #D5CDC1",
",. c #D6D3C9",
"<. c #DEDBCE",
"1. c #E0DACB",
"2. c #E9DECA",
"3. c #F4E7C0",
"4. c #F4E9C8",
"5. c #E8E3D5",
"6. c #EDE4D7",
"7. c #EDE7D8",
"8. c #EAE7DD",
"9. c #F5EBD3",
"0. c #F0E8D9",
"q. c #F1E9DA",
"w. c #F3EADB",
"e. c #F2EBDB",
"r. c #F3EBDB",
"t. c #F6EFD8",
"y. c #F4ECDB",
"u. c #F4EDDB",
"i. c #F2EBDC",
"p. c #F3EBDC",
"a. c #F3ECDC",
"s. c #F3ECDD",
"d. c #F3EDDF",
"f. c #F5EDDD",
"g. c #F4EDDE",
"h. c #F7F0DE",
"j. c #F8F0DF",
"k. c #F4EEE0",
"l. c #F6EFE0",
"z. c #F6F0E0",
"x. c #F6F0E1",
"c. c #F7F1E2",
"v. c #F7F2E2",
"b. c #F7F2E3",
"n. c #F9F1E1",
"m. c #F8F2E2",
"M. c #F8F3E4",
"N. c #F9F3E4",
"B. c #F9F4E5",
"V. c None",
/* pixels */
"V.V.V.V.V.V.# : : $ V.V.V.V.V.V.",
"V.V.V.V.& e 8 8 8 8 4 ; V.V.V.V.",
"V.V.O 1 8 x < 8 8 8 f - 3 O V.V.",
"V.V.1 r V F I S Z z X o q 3 V.V.",
"V.& 8 c j.n.r.g.r.r.>.k 8 8 & V.",
"V.5 8 L +.7.p.5.O.u.a.2.i 8 5 V.",
"# 8 y *.N 9.g.^ j &.c.p.G 8 r # ",
"> q m ~   ,.c.=.( ..M.p.] 8 8 & ",
"& 8 n / . <.a.;.( X.B.a.[ r 5 > ",
"# r y o.h <.8.=.| :.c.0.) 6 r $ ",
"V.5 r U ;.j.n.h.4.c.a.6.b e 5 V.",
"V.& r Q j.N.c.c.k.c.a. .C q & V.",
"V.V.w ! %.` ' @.$.@.} { B 2 V.V.",
"V.V.% A Q v J J Y W { H p + V.V.",
"V.V.V.V.g M K T { ( H s V.V.V.V.",
"V.V.V.V.V.V.d l l a V.V.V.V.V.V."
>>>>>>> 20c2a7ecbb53d034a01305c8e63c0ee327bd9917
};
